# xmcd CD database file
#
# Track frame offsets:
#	150
#	17608
#	38157
#	58205
#	75308
#	92712
#	112532
#	128961
#	145202
#	161841
#	176114
#
# Disc length: 2504 seconds
#
# Revision: 1
# Processed by: cddbd v1.5.2PL0 Copyright (c) Steve Scherf et al.
# Submitted via: CDex 1.51
#
DISCID=8809c60b
DTITLE=Chip Messiner - Do You Remember
DYEAR=2010
DGENRE=Country
TTITLE0=Do You Remember
TTITLE1=All Those Lonely Nights
TTITLE2=Till Our Dying Day
TTITLE3=The Secret of My Heart
TTITLE4=Pickin' Out Dough
TTITLE5=Grandpa Bought a Farm
TTITLE6=Lookin' For You
TTITLE7=My Mother's Ever Lovin' Ears
TTITLE8=Pretty and Perfect
TTITLE9=We Sing on High
TTITLE10=Hey There Riverhawks
EXTD=YEAR: 2010
EXTT0=
EXTT1=
EXTT2=
EXTT3=
EXTT4=
EXTT5=
EXTT6=
EXTT7=
EXTT8=
EXTT9=
EXTT10=
PLAYORDER=
